<svg width="1308" height="1080" viewBox="0 0 1308 1080" fill="none" xmlns="http://www.w3.org/2000/svg">
<path d="M915.861 205.678C915.861 332.946 782.974 238.311 744.265 280.833C581.219 405.433 922.55 512.865 682.096 673.917C852.061 634.36 1092.9 591.208 1166.7 152.868C954.569 -84.0099 886.641 72.1779 915.861 205.678Z" fill="#BEB0F2"/>
<path d="M1468.42 1063.09C1468.42 1186.8 487.497 1326.64 554.033 1158.76C-229.254 1323.42 700.28 1117.8 700.28 994.091C700.28 870.38 437.527 785.167 737.832 641.304C1011.23 302.315 2005.32 901.64 1468.42 1063.09Z" fill="#BEB0F2"/>
<path d="M714.116 1012.26C714.116 1101.11 601.087 1334 387.227 1334C173.368 1334 0 1261.98 0 1173.13C0 1084.28 199.857 929.254 351.898 1012.26C550.153 1120.5 647.579 1063.09 714.116 1012.26Z" fill="#BEB0F2"/>
<ellipse cx="1195.02" cy="400.746" rx="321.484" ry="269.995" fill="#BEB0F2"/>
<ellipse cx="1255.1" cy="162.736" rx="231.08" ry="163.736" fill="#BEB0F2"/>
<ellipse cx="854.804" cy="208.644" rx="18.3172" ry="18.7889" fill="#BEB0F2"/>
<ellipse cx="586.588" cy="988.878" rx="44.0486" ry="46.4778" fill="#BEB0F2"/>
<ellipse cx="429.924" cy="1034.47" rx="14.2045" ry="13.8856" fill="#BEB0F2"/>
<path d="M1118.76 274.916C1118.76 402.947 956.432 307.745 909.148 350.522C709.981 475.869 1126.93 583.944 833.207 745.961C1040.83 706.167 1335.02 662.756 1425.16 221.79C1166.04 -16.5075 1083.07 140.616 1118.76 274.916Z" fill="url(#paint0_linear_696_133)"/>
<path d="M1118.76 274.916C1118.76 402.947 956.432 307.745 909.148 350.522C709.981 475.869 1126.93 583.944 833.207 745.961C1040.83 706.167 1335.02 662.756 1425.16 221.79C1166.04 -16.5075 1083.07 140.616 1118.76 274.916Z" fill="url(#paint1_linear_696_133)"/>
<path d="M1793.73 1137.46C1793.73 1261.91 595.496 1402.6 676.772 1233.71C-280.042 1399.36 855.418 1192.51 855.418 1068.05C855.418 943.601 534.456 857.877 901.29 713.153C1235.25 372.132 2449.58 975.049 1793.73 1137.46Z" fill="url(#paint2_linear_696_133)"/>
<path d="M872.32 1086.33C872.32 1175.71 734.251 1410 473.013 1410C211.775 1410 0 1337.54 0 1248.17C0 1158.79 244.132 1002.83 429.857 1086.33C672.033 1195.22 791.043 1137.46 872.32 1086.33Z" fill="url(#paint3_linear_696_133)"/>
<ellipse cx="1459.77" cy="471.153" rx="392.705" ry="271.613" fill="url(#paint4_linear_696_133)"/>
<ellipse cx="1533.16" cy="231.717" rx="282.273" ry="164.717" fill="url(#paint5_linear_696_133)"/>
<defs>
<linearGradient id="paint0_linear_696_133" x1="1129.18" y1="98.4668" x2="1129.18" y2="745.961" gradientUnits="userSpaceOnUse">
<stop stop-color="#E1DCFA" stop-opacity="0.05"/>
<stop offset="0.145833" stop-color="#E1DCFA" stop-opacity="0.781579"/>
<stop offset="0.369792" stop-color="#E1DCFA" stop-opacity="0.567708"/>
<stop offset="0.572917" stop-color="#E1DCFA" stop-opacity="0.65971"/>
<stop offset="0.822917" stop-color="#E1DCFA" stop-opacity="0.26"/>
<stop offset="0.9997" stop-color="#E1DCFA" stop-opacity="0.726974"/>
<stop offset="0.9998" stop-color="#E1DCFA" stop-opacity="0.836184"/>
<stop offset="0.9999" stop-color="#E1DCFA" stop-opacity="0.595011"/>
<stop offset="1" stop-color="#E1DCFA" stop-opacity="0"/>
</linearGradient>
<linearGradient id="paint1_linear_696_133" x1="1129.18" y1="98.4668" x2="1129.18" y2="745.961" gradientUnits="userSpaceOnUse">
<stop stop-color="#E1DCFA" stop-opacity="0.05"/>
<stop offset="0.145833" stop-color="#E1DCFA" stop-opacity="0.781579"/>
<stop offset="0.369792" stop-color="#E1DCFA" stop-opacity="0.567708"/>
<stop offset="0.572917" stop-color="#E1DCFA" stop-opacity="0.65971"/>
<stop offset="0.822917" stop-color="#E1DCFA" stop-opacity="0.26"/>
<stop offset="0.9997" stop-color="#E1DCFA" stop-opacity="0.726974"/>
<stop offset="0.9998" stop-color="#E1DCFA" stop-opacity="0.836184"/>
<stop offset="0.9999" stop-color="#E1DCFA" stop-opacity="0.595011"/>
<stop offset="1" stop-color="#E1DCFA" stop-opacity="0"/>
</linearGradient>
<linearGradient id="paint2_linear_696_133" x1="1139.18" y1="610.335" x2="1139.18" y2="1311.48" gradientUnits="userSpaceOnUse">
<stop stop-color="#E1DCFA" stop-opacity="0.05"/>
<stop offset="0.145833" stop-color="#E1DCFA" stop-opacity="0.781579"/>
<stop offset="0.369792" stop-color="#E1DCFA" stop-opacity="0.567708"/>
<stop offset="0.572917" stop-color="#E1DCFA" stop-opacity="0.65971"/>
<stop offset="0.822917" stop-color="#E1DCFA" stop-opacity="0.26"/>
<stop offset="0.9997" stop-color="#E1DCFA" stop-opacity="0.726974"/>
<stop offset="0.9998" stop-color="#E1DCFA" stop-opacity="0.836184"/>
<stop offset="0.9999" stop-color="#E1DCFA" stop-opacity="0.595011"/>
<stop offset="1" stop-color="#E1DCFA" stop-opacity="0"/>
</linearGradient>
<linearGradient id="paint3_linear_696_133" x1="436.16" y1="1062.52" x2="436.16" y2="1410" gradientUnits="userSpaceOnUse">
<stop stop-color="#E1DCFA" stop-opacity="0.05"/>
<stop offset="0.145833" stop-color="#E1DCFA" stop-opacity="0.781579"/>
<stop offset="0.369792" stop-color="#E1DCFA" stop-opacity="0.567708"/>
<stop offset="0.572917" stop-color="#E1DCFA" stop-opacity="0.65971"/>
<stop offset="0.822917" stop-color="#E1DCFA" stop-opacity="0.26"/>
<stop offset="0.9997" stop-color="#E1DCFA" stop-opacity="0.726974"/>
<stop offset="0.9998" stop-color="#E1DCFA" stop-opacity="0.836184"/>
<stop offset="0.9999" stop-color="#E1DCFA" stop-opacity="0.595011"/>
<stop offset="1" stop-color="#E1DCFA" stop-opacity="0"/>
</linearGradient>
<linearGradient id="paint4_linear_696_133" x1="1459.77" y1="199.541" x2="1459.77" y2="742.766" gradientUnits="userSpaceOnUse">
<stop stop-color="#E1DCFA" stop-opacity="0.05"/>
<stop offset="0.145833" stop-color="#E1DCFA" stop-opacity="0.781579"/>
<stop offset="0.369792" stop-color="#E1DCFA" stop-opacity="0.567708"/>
<stop offset="0.572917" stop-color="#E1DCFA" stop-opacity="0.65971"/>
<stop offset="0.822917" stop-color="#E1DCFA" stop-opacity="0.26"/>
<stop offset="0.9997" stop-color="#E1DCFA" stop-opacity="0.726974"/>
<stop offset="0.9998" stop-color="#E1DCFA" stop-opacity="0.836184"/>
<stop offset="0.9999" stop-color="#E1DCFA" stop-opacity="0.595011"/>
<stop offset="1" stop-color="#E1DCFA" stop-opacity="0"/>
</linearGradient>
<linearGradient id="paint5_linear_696_133" x1="1533.16" y1="67" x2="1533.16" y2="396.434" gradientUnits="userSpaceOnUse">
<stop stop-color="#E1DCFA" stop-opacity="0.05"/>
<stop offset="0.145833" stop-color="#E1DCFA" stop-opacity="0.781579"/>
<stop offset="0.369792" stop-color="#E1DCFA" stop-opacity="0.567708"/>
<stop offset="0.572917" stop-color="#E1DCFA" stop-opacity="0.65971"/>
<stop offset="0.822917" stop-color="#E1DCFA" stop-opacity="0.26"/>
<stop offset="0.9997" stop-color="#E1DCFA" stop-opacity="0.726974"/>
<stop offset="0.9998" stop-color="#E1DCFA" stop-opacity="0.836184"/>
<stop offset="0.9999" stop-color="#E1DCFA" stop-opacity="0.595011"/>
<stop offset="1" stop-color="#E1DCFA" stop-opacity="0"/>
</linearGradient>
</defs>
</svg>
