<svg width="16" height="16" viewBox="0 0 16 16" fill="none" xmlns="http://www.w3.org/2000/svg">
<path d="M14.6666 11.6667H9.99992M3.33325 11.6667H1.33325M14.6666 4.33334H12.6666M5.99992 4.33334H1.33325M4.66659 9.66668H8.66658C9.39992 9.66668 9.99992 10 9.99992 11V12.3333C9.99992 13.3333 9.39992 13.6667 8.66658 13.6667H4.66659C3.93325 13.6667 3.33325 13.3333 3.33325 12.3333V11C3.33325 10 3.93325 9.66668 4.66659 9.66668ZM7.33325 2.33334H11.3333C12.0666 2.33334 12.6666 2.66668 12.6666 3.66668V5.00001C12.6666 6.00001 12.0666 6.33334 11.3333 6.33334H7.33325C6.59992 6.33334 5.99992 6.00001 5.99992 5.00001V3.66668C5.99992 2.66668 6.59992 2.33334 7.33325 2.33334Z" stroke="#979797" stroke-width="1.5" stroke-miterlimit="10" stroke-linecap="round" stroke-linejoin="round"/>
</svg>
