<svg width="654" height="654" viewBox="0 0 654 654" fill="none" xmlns="http://www.w3.org/2000/svg">
<g clip-path="url(#clip0_120_142)">
<path d="M464.292 400.23C464.292 447.267 127.837 500.438 150.659 436.606C-118.008 499.214 200.822 421.034 200.822 373.997C200.822 326.959 110.698 294.56 213.702 239.86C307.476 110.97 648.45 338.845 464.292 400.23Z" fill="#BEB0F2"/>
<ellipse cx="536.5" cy="277.5" rx="130.5" ry="90.5" transform="rotate(-67.9926 536.5 277.5)" fill="url(#paint0_linear_120_142)"/>
<path d="M301.76 72.4927C301.76 120.739 251.303 84.8639 236.605 100.984C174.697 148.219 304.299 188.946 213 250C277.535 235.004 368.982 218.645 397 52.4728C316.457 -37.3266 290.665 21.8835 301.76 72.4927Z" fill="#BEB0F2"/>
<path d="M361.881 463.643H222.36V573.581H361.881V463.643Z" fill="#163342"/>
<path d="M189.225 316.101H62.349C51.5132 316.101 42.729 324.885 42.729 335.721V544.566C42.729 555.402 51.5132 564.186 62.349 564.186H189.225C200.061 564.186 208.845 555.402 208.845 544.566V335.721C208.845 324.885 200.061 316.101 189.225 316.101Z" fill="#163342"/>
<path d="M242.526 316.863C258.22 338.774 268.595 364.04 272.826 390.657L221.814 385.968L242.526 316.863Z" fill="#FF9E9F"/>
<path d="M394.362 465.213C419.718 491.116 440.634 521.018 456.273 553.719L423.357 554.157L365.586 491.808L394.362 465.213Z" fill="#FF9E9F"/>
<path d="M228.465 378.447C249.756 379.83 270.782 383.933 291.03 390.657C347.447 409.433 383.859 444.18 402.21 464.775L372.561 495.951L214.293 395.67L228.465 378.447Z" fill="#F06D57"/>
<path d="M353.379 473.715C384.474 493.353 410.532 520.008 429.459 551.541L361.008 550.887C358.182 547.333 355.001 543.67 351.417 539.985C342.643 530.985 332.753 523.146 321.987 516.66L353.379 473.715Z" fill="#FF9E9F"/>
<path d="M353.379 473.715C384.474 493.353 410.532 520.008 429.459 551.541" stroke="black" stroke-width="5" stroke-linecap="round" stroke-linejoin="round"/>
<path d="M203.721 393.054C225.974 393.314 248.088 396.614 269.448 402.864C319.309 417.487 353.14 444.877 371.145 462.051L322.749 529.74C303.432 513.243 281.566 499.99 258.003 490.5C217.409 474.179 181.19 472.907 159.903 473.823L142.572 425.1L203.721 393.054Z" fill="#F06D57"/>
<path d="M203.721 393.054C225.974 393.314 248.088 396.614 269.448 402.864C319.309 417.487 353.14 444.877 371.145 462.051L322.749 529.74" stroke="black" stroke-width="5" stroke-linecap="round" stroke-linejoin="round"/>
<path d="M101.37 294.519C98.7929 294.693 96.2273 294.042 94.0446 292.661C91.8618 291.28 90.175 289.24 89.2282 286.837C88.2815 284.433 88.1239 281.791 88.7783 279.292C89.4326 276.794 90.865 274.568 92.8681 272.937C91.462 271.848 81.3479 263.732 80.877 249.609C80.4421 236.496 88.6498 228.089 90.033 226.719C87.9698 221.657 87.331 216.128 88.1856 210.729C89.0403 205.33 91.3558 200.269 94.8815 196.092C98.4072 191.915 103.009 188.783 108.187 187.034C113.366 185.285 118.924 184.987 124.26 186.171C124.715 184.915 130.146 170.632 145.623 166.551C161.698 162.316 173.791 172.99 174.618 173.745C183.32 168.091 194.411 167.744 203.175 172.875C212.838 178.529 218.021 189.879 216.039 201.213C216.693 201.406 230.169 205.549 233.697 219.09C236.725 230.718 229.956 239.805 229.119 240.891C230.359 241.98 240.724 251.391 239.583 265.305C238.547 277.904 228.518 288.908 214.731 291.903L101.37 294.519Z" fill="black"/>
<path d="M67.725 390.948L76.4461 388.041L87.054 406.062C106.331 408.089 138.769 408.917 175.926 396.759C196.739 389.934 216.373 379.934 234.132 367.113C234.642 350.981 235.151 334.849 235.659 318.717L244.815 312.393C241.79 307.555 238.205 303.093 234.132 299.097C201.566 267.224 148.625 277.391 140.61 278.931C121.356 282.629 94.4017 287.806 76.7371 312.393C52.9184 345.544 66.054 386.046 67.725 390.948Z" fill="#F4E12C"/>
<path d="M208.878 302.017C202.957 312.643 197.033 323.267 191.105 333.89C190.735 334.557 190.603 335.332 190.733 336.084C192.021 343.527 193.308 350.97 194.595 358.415C194.676 358.889 194.858 359.339 195.13 359.736C195.402 360.132 195.756 360.465 196.169 360.712C196.581 360.958 197.042 361.113 197.52 361.164C197.998 361.216 198.481 361.164 198.937 361.011L229.116 350.91C229.954 350.627 230.647 350.024 231.042 349.233L247.539 316.045C247.751 315.618 247.869 315.15 247.885 314.674C247.901 314.197 247.814 313.722 247.631 313.282C247.448 312.842 247.172 312.446 246.823 312.121C246.474 311.796 246.059 311.55 245.607 311.399L212.848 300.477C212.11 300.231 211.31 300.251 210.585 300.532C209.861 300.813 209.257 301.338 208.878 302.017Z" fill="#0EBDFF"/>
<path d="M211.35 302.89L193.584 334.763C193.212 335.429 193.08 336.202 193.211 336.954C194.495 344.399 195.781 351.843 197.07 359.288C197.152 359.762 197.335 360.212 197.607 360.608C197.88 361.004 198.234 361.336 198.647 361.583C199.06 361.829 199.521 361.983 199.999 362.035C200.476 362.086 200.96 362.034 201.416 361.881L231.591 351.783C232.431 351.502 233.125 350.898 233.52 350.106L250.018 316.919C250.227 316.491 250.343 316.025 250.357 315.549C250.371 315.073 250.284 314.6 250.1 314.161C249.916 313.723 249.641 313.328 249.292 313.004C248.944 312.681 248.53 312.435 248.078 312.285L215.316 301.363C214.581 301.117 213.782 301.134 213.058 301.413C212.334 301.692 211.73 302.214 211.35 302.89Z" fill="#163342"/>
<path d="M214.636 322.268L209.077 320.457C208.91 320.402 208.758 320.311 208.63 320.191C208.503 320.07 208.405 319.922 208.342 319.758C208.279 319.594 208.254 319.418 208.268 319.243C208.282 319.068 208.335 318.898 208.423 318.747L214.25 308.655C214.385 308.422 214.596 308.241 214.848 308.145C215.1 308.048 215.377 308.042 215.633 308.126L221.192 309.937C221.359 309.991 221.512 310.082 221.639 310.203C221.767 310.324 221.865 310.472 221.928 310.636C221.99 310.8 222.016 310.976 222.002 311.151C221.988 311.326 221.935 311.496 221.846 311.647L216.023 321.739C215.887 321.972 215.675 322.152 215.423 322.249C215.171 322.345 214.893 322.352 214.636 322.268Z" fill="#0EBDFF"/>
<path d="M215.048 319.783L211.144 318.57C211.025 318.528 210.917 318.46 210.828 318.37C210.739 318.281 210.672 318.173 210.63 318.054C210.589 317.935 210.575 317.808 210.589 317.683C210.603 317.558 210.645 317.437 210.712 317.331L215.045 309.829C215.138 309.66 215.286 309.527 215.463 309.451C215.641 309.375 215.839 309.361 216.026 309.411L219.93 310.627C220.049 310.669 220.156 310.737 220.245 310.826C220.333 310.915 220.401 311.023 220.442 311.142C220.483 311.261 220.497 311.387 220.483 311.512C220.468 311.637 220.426 311.757 220.359 311.863L216.026 319.368C215.932 319.536 215.785 319.668 215.608 319.743C215.431 319.818 215.234 319.832 215.048 319.783Z" fill="#163342"/>
<path d="M199.689 348.255C198.358 347.866 197.465 346.744 196.2 344.004C193.531 338.226 194.238 336.156 192.168 332.34C191.569 331.244 188.934 326.392 186.282 326.673C182.685 327.052 181.181 336.594 181.05 337.464C180.471 341.29 180.069 349.259 185.736 359.481C182.332 365.38 177.815 370.563 172.437 374.742C167.152 378.83 157.568 386.243 144.969 384.771C135.067 383.614 128.354 377.554 125.506 374.592L71.7827 389.67C73.6401 396.824 77.8191 408.57 87.8548 418.995C109.744 441.741 141.375 439.4 148.677 438.834C196.952 435.1 222.971 388.839 225.411 384.333C229.458 382.631 233.24 380.355 236.64 377.577C239.544 375.197 247.339 368.643 250.155 357.846C251.28 353.529 252.571 344.848 249.102 342.987C247.751 342.264 246.002 342.742 244.488 343.458C244.736 342.716 247.735 333.442 242.997 328.743C242.483 328.236 241.182 326.98 239.256 326.781C236.313 326.48 233.183 328.743 231.297 332.559C231.091 327.19 228.733 323.154 225.738 322.53C224.782 322.351 223.795 322.465 222.906 322.857C219.668 324.368 219.309 329.426 218.763 331.905C217.88 335.96 214.718 341.424 204.267 347.055C203.547 347.575 201.621 348.824 199.689 348.255Z" fill="#FF9E9F"/>
<path d="M227.265 322.366C228.723 323.746 229.874 325.418 230.643 327.271C233.517 334.295 229.453 341.162 228.845 342.15" stroke="black" stroke-width="2.5" stroke-linecap="round" stroke-linejoin="round"/>
<path d="M243.736 328.884C245.193 331.452 245.995 334.339 246.071 337.291C246.261 347.82 236.441 354.295 235.574 354.851" stroke="black" stroke-width="2.5" stroke-linecap="round" stroke-linejoin="round"/>
<path d="M245.354 343.088C246.581 342.513 248.091 342.075 249.278 342.696C252.673 344.468 251.594 353.84 249.481 360.076C246.185 369.811 239.125 375.592 235.953 378.123C232.699 380.721 229.118 382.883 225.303 384.552" stroke="black" stroke-width="2.5" stroke-linecap="round" stroke-linejoin="round"/>
<path d="M65.9458 391.311L128.076 373.869C127.185 360.807 125.425 347.82 122.808 334.992C121.372 327.978 119.75 321.333 118.011 315.084" stroke="black" stroke-width="5" stroke-linecap="round" stroke-linejoin="round"/>
<path d="M42.729 433.602H228.174C231.547 433.602 234.781 434.942 237.166 437.327C239.551 439.712 240.891 442.946 240.891 446.319V565.455C240.891 568.818 239.555 572.044 237.177 574.422C234.799 576.8 231.573 578.136 228.21 578.136H42.729V433.602Z" fill="#0EBDFF"/>
<path d="M199.653 433.602H228.246C231.6 433.602 234.816 434.934 237.187 437.306C239.559 439.677 240.891 442.893 240.891 446.247V565.494C240.89 568.847 239.558 572.063 237.186 574.434C234.815 576.804 231.599 578.136 228.246 578.136H198.306C194.856 578.136 191.547 576.766 189.108 574.326C186.668 571.887 185.298 568.578 185.298 565.128V447.954C185.298 446.069 185.669 444.203 186.391 442.461C187.112 440.72 188.17 439.137 189.503 437.805C190.836 436.472 192.418 435.415 194.16 434.694C195.902 433.973 197.768 433.602 199.653 433.602Z" fill="#163342"/>
<path d="M185.844 433.602H228.246C231.599 433.603 234.815 434.935 237.186 437.307C239.558 439.678 240.89 442.894 240.891 446.247V565.491C240.891 572.456 236.679 577.155 228.246 577.155" stroke="black" stroke-width="5" stroke-linecap="round" stroke-linejoin="round"/>
<path d="M143.654 256.326L126.222 284.925C130.673 290.535 136.509 294.889 143.154 297.559C149.799 300.229 157.025 301.123 164.121 300.153L176.58 276.423C180.817 274.96 184.791 272.826 188.352 270.102C202.298 259.386 210.493 238.677 204.156 223.449C203.28 221.353 202.145 219.376 200.778 217.563C194.571 222.796 187.094 226.301 179.101 227.724C171.108 229.147 162.881 228.439 155.249 225.669C154.004 223.805 151.777 221.176 148.428 220.372C141.022 218.59 132.167 226.693 130.146 235.44C128.88 240.921 129.779 248.886 135.522 253.317C137.887 255.081 140.71 256.125 143.654 256.326Z" fill="#FF9E9F"/>
<path d="M178.257 255.387L188.267 255.632C187.272 250.674 187.782 245.531 189.732 240.865C189.944 240.384 191.108 237.922 193.757 237.078C196.618 236.186 200.039 237.575 201.932 240.62" stroke="black" stroke-width="2.5" stroke-linecap="round" stroke-linejoin="round"/>
<path d="M183.139 235.741C182.361 234.279 180.713 231.604 177.907 229.76C176.559 228.854 175.03 228.254 173.426 228.001C171.822 227.748 170.182 227.848 168.621 228.295" stroke="black" stroke-width="2.5" stroke-linecap="round" stroke-linejoin="round"/>
<path d="M163.978 258.686C165.118 261.317 167.09 263.5 169.592 264.899C174.88 267.79 180.207 265.694 180.942 265.39" stroke="black" stroke-width="2.5" stroke-linecap="round" stroke-linejoin="round"/>
<path d="M154.563 268.212C156.198 270.174 159.756 273.813 165.462 275.478C172.12 277.424 177.711 275.497 180.723 274.461C184.932 273.001 188.774 270.646 191.985 267.558" stroke="black" stroke-width="2.5" stroke-linecap="round" stroke-linejoin="round"/>
<path d="M143.298 229.263C144.556 233.137 145.816 237.013 147.078 240.891L136.758 242.706" stroke="black" stroke-width="2.5" stroke-linecap="round" stroke-linejoin="round"/>
<path d="M582.148 38.3669H380.889C369.21 38.3669 359.742 47.8348 359.742 59.514V343.785C359.742 355.464 369.21 364.932 380.889 364.932H582.148C593.827 364.932 603.295 355.464 603.295 343.785V59.514C603.295 47.8348 593.827 38.3669 582.148 38.3669Z" stroke="black" stroke-width="5" stroke-linecap="round" stroke-linejoin="round"/>
<path d="M536.12 261.783H426.915C422.309 261.783 418.576 265.516 418.576 270.122V281.903C418.576 286.509 422.309 290.242 426.915 290.242H536.12C540.725 290.242 544.458 286.509 544.458 281.903V270.122C544.458 265.516 540.725 261.783 536.12 261.783Z" stroke="black" stroke-width="5" stroke-linecap="round" stroke-linejoin="round"/>
<path d="M483.535 298.953H424.848C421.384 298.953 418.576 301.761 418.576 305.225V321.14C418.576 324.604 421.384 327.412 424.848 327.412H483.535C486.999 327.412 489.807 324.604 489.807 321.14V305.225C489.807 301.761 486.999 298.953 483.535 298.953Z" stroke="black" stroke-width="5" stroke-linecap="round" stroke-linejoin="round"/>
<path d="M481.521 232.795C530.305 232.795 569.853 193.247 569.853 144.462C569.853 95.6774 530.305 56.1295 481.521 56.1295C432.736 56.1295 393.188 95.6774 393.188 144.462C393.188 193.247 432.736 232.795 481.521 232.795Z" stroke="black" stroke-width="5" stroke-linecap="round" stroke-linejoin="round"/>
<path d="M321.114 172.656C323.523 175.828 326.567 178.464 330.051 180.396C338.729 185.174 347.313 183.882 350.109 183.339C352.577 172.875 355.047 162.411 357.519 151.947L341.388 136.578C334.63 148.603 327.872 160.629 321.114 172.656Z" fill="#FF9E9F"/>
<path d="M357.648 145.656L404.245 159.58C407.868 153.894 412.352 148.814 417.534 144.522C455.97 112.868 518.831 138.946 525.656 141.884C530.986 144.157 535.785 147.526 539.745 151.776C540.829 152.949 544.414 156.959 548.192 165.515C552.028 174.296 554.332 183.677 555 193.245C552.224 197.14 549.17 200.826 545.862 204.275C540.509 209.9 534.494 214.846 527.95 219.003C519.911 223.946 511.135 227.558 501.958 229.7C474.272 236.189 451.658 227.138 446.039 224.718C438.61 221.51 431.645 217.307 425.335 212.221C419.656 211.342 413.815 210.281 407.813 209.039C386.599 204.557 365.89 197.928 346 189.256L357.648 145.656Z" fill="#F2F8FF"/>
<path d="M557.499 189.539C549.506 203.015 538.072 214.122 524.369 221.72C510.667 229.318 495.19 233.133 479.526 232.775C450.897 232.105 431.457 217.602 425.365 212.655" stroke="black" stroke-width="5" stroke-linecap="round" stroke-linejoin="round"/>
<path d="M524.727 168.15L512.543 227.154" stroke="black" stroke-width="2.5" stroke-linecap="round" stroke-linejoin="round"/>
<path d="M432.513 159.141C430.13 176.978 427.747 194.816 425.365 212.655" stroke="black" stroke-width="2.5" stroke-linecap="round" stroke-linejoin="round"/>
<path d="M485.16 71.7765C479.819 76.4641 475.273 81.9856 471.697 88.1265C470.606 86.033 470.17 83.6598 470.445 81.3151C470.623 79.8997 471.067 78.5307 471.753 77.2799L485.16 71.7765Z" fill="#292929"/>
<path d="M472.515 176.472C470.446 165.243 468.375 154.016 466.302 142.791L491.916 149.331L472.515 176.472Z" fill="#0EBDFF"/>
<path d="M471.861 120.882C470.006 128.183 468.153 135.486 466.302 142.791C473.945 147.39 482.708 149.792 491.628 149.733L498.783 138.321C499.548 132.071 500.311 125.822 501.072 119.574C503.408 119.949 505.8 119.762 508.05 119.028C508.589 118.848 515.172 116.533 517.422 109.653C517.876 108.263 519.822 102.318 516.006 97.6651C512.484 93.3683 506.85 93.5939 506.196 93.6299L483.306 72.267C479.176 75.1668 475.718 78.9219 473.169 83.2771C470.386 88.084 469.712 93.5285 468.372 104.421C467.734 109.62 467.528 113.956 469.899 118.155C470.452 119.132 471.11 120.047 471.861 120.882Z" fill="#FF9E9F"/>
<path d="M472.623 91.887C474.83 91.1428 477.23 91.2053 479.395 92.0632C481.561 92.9211 483.352 94.519 484.451 96.5729C482.43 99.8994 479.827 102.835 476.766 105.238L480.2 108.728" stroke="black" stroke-width="2.5" stroke-linecap="round" stroke-linejoin="round"/>
<path d="M489.774 97.083C490.209 96.9261 493.371 95.8306 496.458 97.6651C498.086 98.6579 499.3 100.206 499.875 102.024" stroke="black" stroke-width="2.5" stroke-linecap="round" stroke-linejoin="round"/>
<path d="M475.023 112.851C475.64 113.999 476.509 114.993 477.564 115.758C480.651 117.969 484.192 117.292 484.905 117.138" stroke="black" stroke-width="2.5" stroke-linecap="round" stroke-linejoin="round"/>
<path d="M511.284 104.058L505.614 106.965L510.12 111.18" stroke="black" stroke-width="2.5" stroke-linecap="round" stroke-linejoin="round"/>
<path d="M482.024 73.2219C483.234 76.7927 486.517 84.8107 494.643 91.1251C498.442 94.0671 502.772 96.2498 507.396 97.5539C510.353 96.7825 513.479 96.9656 516.326 98.0771C517.632 95.5154 518.342 92.6917 518.403 89.8171C518.553 79.1275 508.995 72.2997 507.177 71.0669C506.219 70.4129 495.156 63.1797 482.979 68.1239C476.766 70.6418 473.241 75.1185 471.753 77.2799L479.817 74.0099L482.024 73.2219Z" fill="#292929"/>
<path d="M499.8 136.686C495.457 143.505 490.914 150.398 486.171 157.365C475.563 172.934 464.86 187.449 454.239 200.997L446.162 225.303" stroke="black" stroke-width="2.5" stroke-linecap="round" stroke-linejoin="round"/>
<path d="M454.239 200.997L498.24 171.456L495.513 156.525L506.088 162.519L507.579 136.578" stroke="black" stroke-width="2.5" stroke-linecap="round" stroke-linejoin="round"/>
<path d="M459.879 130.3L451.26 154.452L463.794 153.798L452.568 163.065L465.174 186.743" stroke="black" stroke-width="2.5" stroke-linecap="round" stroke-linejoin="round"/>
<path d="M337.216 121.752H317.272C312.365 121.752 308.387 125.73 308.387 130.637V166.822C308.387 171.729 312.365 175.707 317.272 175.707H337.216C342.122 175.707 346.1 171.729 346.1 166.822V130.637C346.1 125.73 342.122 121.752 337.216 121.752Z" fill="#F4E12C"/>
<path d="M337.896 113.698H316.595C315.389 113.698 314.411 114.676 314.411 115.882V119.895C314.411 121.101 315.389 122.079 316.595 122.079H337.896C339.102 122.079 340.08 121.101 340.08 119.895V115.882C340.08 114.676 339.102 113.698 337.896 113.698Z" fill="#DD3354"/>
<path d="M307.707 135.525L332.454 135.45L332.598 164.298L307.455 164.445C307.538 154.805 307.622 145.165 307.707 135.525Z" fill="#DD3354"/>
<path d="M338.19 126.366C336.476 126.366 334.992 129.436 334.485 131.454C332.523 139.237 341.116 147.183 342.696 148.602C341.58 151.1 340.963 153.791 340.878 156.525C340.678 163.667 344.282 168.791 345.603 170.495L355.704 150.492C354.964 147.5 353.683 144.668 351.924 142.137C348.696 137.559 346.365 137.719 342.84 132.69C340.201 128.93 339.753 126.359 338.19 126.366Z" fill="#FF9E9F"/>
<path d="M312.925 138.403C313.537 135.61 311.054 132.694 307.379 131.889C303.705 131.083 300.23 132.694 299.618 135.487C299.006 138.28 301.489 141.196 305.163 142.001C308.838 142.807 312.313 141.196 312.925 138.403Z" fill="#FF9E9F"/>
<path d="M305.637 154.069C309.399 154.069 312.448 151.752 312.448 148.893C312.448 146.034 309.399 143.716 305.637 143.716C301.875 143.716 298.826 146.034 298.826 148.893C298.826 151.752 301.875 154.069 305.637 154.069Z" fill="#FF9E9F"/>
<path d="M309.251 166.746C312.862 165.655 315.118 162.546 314.289 159.801C313.459 157.057 309.86 155.716 306.248 156.807C302.637 157.898 300.382 161.008 301.211 163.752C302.04 166.497 305.639 167.837 309.251 166.746Z" fill="#FF9E9F"/>
<ellipse cx="421.049" cy="542.478" rx="44.0486" ry="46.4778" fill="#BEB0F2"/>
<ellipse cx="555.205" cy="446.886" rx="14.2045" ry="13.8856" fill="#BEB0F2"/>
<ellipse cx="367" cy="563.5" rx="24" ry="23.5" fill="#E1DCFA"/>
<ellipse cx="176.317" cy="46.7889" rx="18.3172" ry="18.7889" fill="#BEB0F2"/>
<ellipse cx="421.049" cy="542.478" rx="44.0486" ry="46.4778" fill="#BEB0F2"/>
<ellipse cx="555.205" cy="446.886" rx="14.2045" ry="13.8856" fill="#BEB0F2"/>
<ellipse cx="176.317" cy="46.7889" rx="18.3172" ry="18.7889" fill="#BEB0F2"/>
</g>
<defs>
<linearGradient id="paint0_linear_120_142" x1="536.5" y1="187" x2="536.5" y2="368" gradientUnits="userSpaceOnUse">
<stop stop-color="#E1DCFA" stop-opacity="0.05"/>
<stop offset="0.145833" stop-color="#E1DCFA" stop-opacity="0.781579"/>
<stop offset="0.369792" stop-color="#E1DCFA" stop-opacity="0.567708"/>
<stop offset="0.572917" stop-color="#E1DCFA" stop-opacity="0.65971"/>
<stop offset="0.822917" stop-color="#E1DCFA" stop-opacity="0.26"/>
<stop offset="0.9997" stop-color="#E1DCFA" stop-opacity="0.726974"/>
<stop offset="0.9998" stop-color="#E1DCFA" stop-opacity="0.836184"/>
<stop offset="0.9999" stop-color="#E1DCFA" stop-opacity="0.595011"/>
<stop offset="1" stop-color="#E1DCFA" stop-opacity="0"/>
</linearGradient>
<clipPath id="clip0_120_142">
<rect width="654" height="654" fill="white"/>
</clipPath>
</defs>
</svg>
