<svg width="589" height="589" viewBox="0 0 589 589" fill="none" xmlns="http://www.w3.org/2000/svg">
<g clip-path="url(#clip0_120_57)">
<path d="M585.185 331.273C572.704 384.884 457.052 506.106 300.13 469.574C143.209 433.042 26.1176 359.966 38.5986 306.356C51.0795 252.745 219.504 193.338 319.405 269.397C449.671 368.576 529.223 350.575 585.185 331.273Z" fill="url(#paint0_linear_120_57)"/>
<path d="M356.864 207.51C350.52 304.503 234.994 224.516 197.848 254.632C44.1048 339.942 347.603 442.02 122 550.529C277.765 530.442 497.842 511.808 586.464 182.108C406.329 -10.9761 337.079 104.038 356.864 207.51Z" fill="url(#paint1_linear_120_57)"/>
<path d="M434.976 129.58H229.71C221.415 129.58 214.69 136.304 214.69 144.599V464.789C214.69 473.084 221.415 479.808 229.71 479.808H434.976C443.271 479.808 449.996 473.084 449.996 464.789V144.599C449.996 136.304 443.271 129.58 434.976 129.58Z" stroke="black" stroke-width="5" stroke-linecap="round" stroke-linejoin="round"/>
<path d="M214.69 195.645H322.972" stroke="black" stroke-width="5" stroke-linecap="round" stroke-linejoin="round"/>
<path d="M214.69 302.452H322.972" stroke="black" stroke-width="5" stroke-linecap="round" stroke-linejoin="round"/>
<path d="M334.187 129.58V479.838" stroke="black" stroke-width="5" stroke-linecap="round" stroke-linejoin="round"/>
<path d="M278.008 388.446L449.996 388.61" stroke="black" stroke-width="5" stroke-linecap="round" stroke-linejoin="round"/>
<path d="M350.947 421.135H347.787C346.051 421.135 344.645 422.542 344.645 424.277V437.43C344.645 439.165 346.051 440.572 347.787 440.572H350.947C352.682 440.572 354.089 439.165 354.089 437.43V424.277C354.089 422.542 352.682 421.135 350.947 421.135Z" stroke="black" stroke-width="5" stroke-linecap="round" stroke-linejoin="round"/>
<path d="M315.071 421.135H311.911C310.175 421.135 308.769 422.542 308.769 424.277V437.43C308.769 439.165 310.175 440.572 311.911 440.572H315.071C316.806 440.572 318.213 439.165 318.213 437.43V424.277C318.213 422.542 316.806 421.135 315.071 421.135Z" stroke="black" stroke-width="5" stroke-linecap="round" stroke-linejoin="round"/>
<path d="M92.0815 415.486C71.9112 415.486 55.5635 431.039 55.5635 450.237V511.278H62.3046V454.558C62.3046 436.732 75.6337 422.278 92.0815 422.278C108.529 422.278 121.858 436.732 121.858 454.558V511.278H128.599V450.226C128.599 431.039 112.249 415.486 92.0815 415.486Z" fill="black"/>
<path d="M149.606 415.486C129.439 415.486 113.088 431.039 113.088 450.237V511.278H119.829V454.558C119.829 436.732 133.162 422.278 149.606 422.278C166.051 422.278 179.383 436.732 179.383 454.558V511.278H186.124V450.226C186.124 431.039 169.774 415.486 149.606 415.486Z" fill="black"/>
<path d="M67.1227 403.812H130.39C139.16 403.812 146.27 396.703 146.27 387.933V324.666C146.27 315.896 139.16 308.786 130.39 308.786H67.1227C58.3527 308.786 51.2432 315.896 51.2432 324.666L51.2432 387.933C51.2432 396.703 58.3527 403.812 67.1227 403.812Z" fill="black"/>
<path d="M61.7186 416.379H151.889C155.94 416.379 159.225 413.094 159.225 409.043V404.767C159.225 400.715 155.94 397.431 151.889 397.431H61.7186C57.667 397.431 54.3826 400.715 54.3826 404.767V409.043C54.3826 413.094 57.667 416.379 61.7186 416.379Z" fill="#292929"/>
<path d="M326.615 511.27H337.488V356.304H326.615V511.27Z" fill="#163342"/>
<path d="M83.2436 511.27H92.0786L92.0786 356.304H83.2436L83.2436 511.27Z" fill="#163342"/>
<path d="M292.536 215.377L308.539 210.665L317.863 202.224L337.105 195.94L354.675 229.807C351.762 231.562 348.708 233.073 345.546 234.325C333.792 238.975 322.937 239.084 315.801 238.448L300.587 243.354C297.903 234.03 295.22 224.704 292.536 215.377Z" fill="#FF9E9F"/>
<path d="M341.915 205.658C341.155 205.888 336.979 207.213 335.141 211.354C334.847 212.049 333.433 215.2 334.732 217.264C336.296 219.756 341.564 220.318 347.313 217.438" stroke="black" stroke-width="5" stroke-linecap="round" stroke-linejoin="round"/>
<path d="M347.552 217.606C346.792 217.833 342.616 219.161 340.778 223.299C340.469 223.997 339.07 227.145 340.369 229.209C341.932 231.701 347.201 232.266 352.95 229.386" stroke="black" stroke-width="5" stroke-linecap="round" stroke-linejoin="round"/>
<path d="M328.98 177.704L352.413 229.242C354.254 233.288 358.521 235.311 361.943 233.753C365.365 232.196 366.655 227.654 364.806 223.608L341.373 172.07L328.98 177.704Z" fill="#FFECE5" stroke="black" stroke-width="5" stroke-linecap="round" stroke-linejoin="round"/>
<path d="M339.868 201.65L351.492 194.326L364.933 224.954C365.335 226.291 365.405 227.706 365.136 229.077C364.641 231.38 362.998 233.494 360.494 233.93C357.944 234.378 355.152 232.976 353.426 230.379L339.868 201.65Z" fill="#F4E12C"/>
<path d="M328.98 177.704L352.413 229.242C354.254 233.288 358.521 235.311 361.943 233.753C365.365 232.196 366.655 227.654 364.806 223.608L341.373 172.07L328.98 177.704Z" stroke="black" stroke-width="5" stroke-linecap="round" stroke-linejoin="round"/>
<path d="M308.539 210.665C309.577 207.465 311.172 204.474 313.251 201.83C315.946 198.425 317.798 197.751 327.287 191.522C335.925 185.853 338.307 183.842 339.853 184.849C342.021 186.259 340.366 192.185 340.245 192.603C337.494 202.151 326.492 206.344 323.361 207.425" fill="#FF9E9F"/>
<path d="M339.853 184.849C342.021 186.259 340.366 192.185 340.245 192.603C337.494 202.151 326.492 206.344 323.361 207.425" stroke="black" stroke-width="5" stroke-linecap="round" stroke-linejoin="round"/>
<path d="M355.176 190.486C358.162 188.371 359.211 184.719 357.519 182.33C355.827 179.941 352.034 179.719 349.048 181.834C346.062 183.95 345.012 187.601 346.705 189.99C348.397 192.379 352.189 192.601 355.176 190.486Z" fill="#FF9E9F"/>
<path d="M241.352 508.975C240.595 507.367 239.589 505.888 238.371 504.593C233.594 499.657 226.297 499.198 215.017 492.604C210.17 489.774 203.85 485.242 197.406 477.829C196.84 477.17 196.046 476.749 195.183 476.651L159.672 472.672C159.185 472.618 158.692 472.667 158.226 472.817C157.759 472.967 157.33 473.214 156.966 473.543C156.603 473.871 156.312 474.272 156.115 474.721C155.918 475.169 155.819 475.655 155.823 476.145C155.911 485.592 155.961 493.611 156.182 514.58C156.203 516.459 156.182 517.975 156.15 518.85H174.441V512.839H197.512V518.838L243.354 518.809C243.523 515.415 242.834 512.033 241.352 508.975Z" fill="black"/>
<path d="M309.938 508.976C309.182 507.367 308.176 505.888 306.958 504.593C302.178 499.658 294.883 499.198 283.601 492.604C278.756 489.774 272.436 485.242 265.993 477.829C265.426 477.171 264.632 476.75 263.769 476.651L228.258 472.673C227.772 472.618 227.279 472.666 226.813 472.816C226.347 472.965 225.918 473.212 225.554 473.54C225.19 473.867 224.9 474.268 224.703 474.716C224.505 475.164 224.405 475.649 224.409 476.139C224.498 485.586 224.548 493.606 224.769 514.574C224.789 516.453 224.769 517.97 224.736 518.844H243.028V512.834H266.096V518.832L311.941 518.803C312.108 515.411 311.42 512.031 309.938 508.976Z" fill="black"/>
<path d="M280.561 430.123V473.709C273.035 477.008 265 479 256.804 479.599C240.265 480.777 227.354 475.921 220.875 472.923C197.727 481.754 172.2 482.103 148.82 473.906V429.926L223.82 381.825L280.561 430.123Z" fill="#0EBDFF"/>
<path d="M159.177 476.943C179.679 481.837 201.181 480.436 220.875 472.923V397.431" stroke="black" stroke-width="5" stroke-linecap="round" stroke-linejoin="round"/>
<path d="M215.018 492.604C218.848 494.766 222.813 496.68 226.889 498.332C230.423 499.755 233.495 500.756 236.902 503.577C238.543 504.907 239.935 506.518 241.01 508.336C243.505 512.574 243.49 516.812 243.346 518.791" stroke="white" stroke-width="5" stroke-linecap="round" stroke-linejoin="round"/>
<path d="M160.756 229.442C178.237 229.251 192.532 227.869 207.231 234.619C207.702 234.834 208.088 235.02 208.341 235.141L292.341 211.648L306.477 260.338L227.015 283.763C229.289 305.927 231.562 328.092 233.833 350.258C237.173 350.355 241.737 350.97 247.086 352.178C251.503 353.176 258.371 355.323 265.05 360.424C278.833 370.952 282.455 386.929 285.665 401.065C288.25 412.555 289.143 424.362 288.316 436.11H234.946C232.901 423.106 229.297 410.395 224.212 398.252C223.063 405.12 221.605 412.388 219.762 419.978C218.392 425.629 216.914 431.01 215.377 436.11H141.949V405.188C136.457 403.35 126.479 399.133 117.8 389.579C102.23 372.445 102.831 351.353 103.075 346.682C98.2571 340.357 91.3923 329.513 88.6446 314.776C82.9372 284.175 96.9613 247.63 123.985 234.672C127.047 233.203 138.147 229.689 160.756 229.442Z" fill="#F2F8FF"/>
<path d="M221.267 248.558C222.912 257.776 224.418 267.33 225.785 277.222C227.808 292.029 229.275 306.256 230.299 319.827" stroke="black" stroke-width="5" stroke-linecap="round" stroke-linejoin="round"/>
<path d="M202.822 314.921C207.402 314.117 222.307 312.088 238.218 320.416C254.024 328.689 260.857 341.962 262.824 346.191H202.225L202.822 314.921Z" fill="#FF9E9F"/>
<path d="M129.875 267.462C130.791 273.295 131.642 279.283 132.428 285.426C133.048 290.317 133.604 295.127 134.095 299.857L202.092 299.822C202.728 308.827 203.052 318.484 202.911 328.718C202.828 334.767 202.587 340.595 202.224 346.191" stroke="black" stroke-width="5" stroke-linecap="round" stroke-linejoin="round"/>
<path d="M143.913 232.611L129.777 248.614L150.49 250.281C148.787 255.386 147.086 260.49 145.386 265.595C162.955 272.382 178.066 284.315 188.742 299.83" stroke="black" stroke-width="5" stroke-linecap="round" stroke-linejoin="round"/>
<path d="M187.956 234.902L201.047 244.73L194.632 247.348L209.946 260.959C210.801 276.931 208.285 292.905 202.563 307.841" stroke="black" stroke-width="5" stroke-linecap="round" stroke-linejoin="round"/>
<path d="M215.377 436.11C217.123 430.238 218.793 424.056 220.336 417.575C222.778 407.32 224.61 397.549 225.979 388.401" stroke="black" stroke-width="5" stroke-linecap="round" stroke-linejoin="round"/>
<path d="M178.075 236.604C168.43 230.753 159.413 229.209 155.593 232.949C154.801 233.747 154.227 234.735 153.926 235.818C171.71 249.901 185.611 268.285 194.314 289.234C195.616 278.056 194.152 266.73 190.05 256.25C187.206 249.068 183.156 242.423 178.075 236.604Z" fill="#0EBDFF"/>
<path d="M181.748 241.246L179.939 226.144C181.113 226.014 182.268 225.747 183.379 225.348C184.836 224.816 186.203 224.065 187.434 223.122C189.679 221.308 190.695 218.814 191.425 216.458C193.607 209.416 195.024 197.801 192.406 187.122C191.658 184.068 190.524 180.867 187.664 178.709C186.986 178.199 186.25 177.772 185.47 177.436L154.448 178.223L138.088 198.508C135.658 204.574 137.499 211.124 142.014 214.216C146.528 217.309 151.877 215.689 152.616 215.439C153.052 222.23 153.488 229.021 153.926 235.812L161.975 241.961C163.718 242.161 165.574 242.303 167.526 242.362C172.293 242.504 177.061 242.13 181.748 241.246Z" fill="#FF9E9F"/>
<path d="M198.231 299.825C193.152 284.075 185.222 269.392 174.836 256.509C168.648 248.864 161.636 241.925 153.926 235.818" stroke="black" stroke-width="5" stroke-linecap="round" stroke-linejoin="round"/>
<path d="M143.687 203.255L150.616 204.233L145.813 209.304" stroke="black" stroke-width="4" stroke-linecap="round" stroke-linejoin="round"/>
<path d="M180.299 195.569C180.034 196.822 180.012 198.115 180.234 199.376C180.897 203.108 183.536 205.293 184.357 205.923C182.758 207.335 180.887 208.403 178.859 209.063" stroke="black" stroke-width="4" stroke-linecap="round" stroke-linejoin="round"/>
<path d="M182.493 214.794C181.366 215.694 180.034 216.301 178.614 216.561C176.495 216.912 174.319 216.495 172.48 215.383" stroke="black" stroke-width="4" stroke-linecap="round" stroke-linejoin="round"/>
<path d="M168.16 203.941C172.198 203.941 175.472 200.667 175.472 196.629C175.472 192.59 172.198 189.316 168.16 189.316C164.121 189.316 160.847 192.59 160.847 196.629C160.847 200.667 164.121 203.941 168.16 203.941Z" stroke="black" stroke-width="4" stroke-linecap="round" stroke-linejoin="round"/>
<path d="M188.742 203.941C192.781 203.941 196.055 200.667 196.055 196.629C196.055 192.59 192.781 189.316 188.742 189.316C184.704 189.316 181.43 192.59 181.43 196.629C181.43 200.667 184.704 203.941 188.742 203.941Z" stroke="black" stroke-width="4" stroke-linecap="round" stroke-linejoin="round"/>
<path d="M175.425 195.784C176.521 195.2 177.751 194.916 178.991 194.959C179.86 194.996 180.714 195.196 181.509 195.548" stroke="black" stroke-width="4" stroke-linecap="round" stroke-linejoin="round"/>
<path d="M151.833 196.726C151.414 196.358 148.593 193.955 144.632 194.5C139.835 195.162 137.767 199.524 137.638 199.801C135.686 196.113 134.714 191.986 134.816 187.814C135.14 177.507 142.297 170.94 144.299 169.261C155.835 159.525 172.498 162.903 180.331 167.768C183.326 169.649 185.918 172.107 187.956 174.998C189.629 177.589 190.754 180.496 191.26 183.538C188.229 183.849 185.142 184.121 182.001 184.357C170.896 185.178 159.753 185.375 148.625 184.946L154.253 196.596L151.833 196.726Z" fill="black"/>
<path d="M224.212 326.044C227.848 327.407 231.283 329.256 234.422 331.542C239.698 335.413 244.037 340.419 247.118 346.191" stroke="black" stroke-width="5" stroke-linecap="round" stroke-linejoin="round"/>
<path d="M355.388 310.353L369.003 308.783L368.561 337.055C368.359 338.254 367.832 339.374 367.039 340.295C366.249 341.225 365.209 341.91 364.043 342.269C362.877 342.628 361.632 342.646 360.456 342.321C359.28 341.996 358.221 341.341 357.404 340.435C356.588 339.528 356.048 338.406 355.848 337.202L355.388 310.353Z" fill="#F06D57"/>
<path d="M355.388 288.118V335.971C355.425 337.752 356.159 339.448 357.431 340.694C358.704 341.941 360.414 342.639 362.196 342.639C363.977 342.639 365.687 341.941 366.96 340.694C368.232 339.448 368.966 337.752 369.003 335.971V288.118H355.388Z" stroke="black" stroke-width="5" stroke-linecap="round" stroke-linejoin="round"/>
<path d="M377.579 299.83H339.391C336.979 299.83 335.023 301.892 335.023 304.41V346.191H341.046V309.419C341.046 307.296 342.498 305.573 344.285 305.573H372.672C374.466 305.573 375.912 307.296 375.912 309.419V346.191H381.931V304.41C381.946 301.88 379.991 299.83 377.579 299.83Z" fill="#163342"/>
<path d="M330.135 288.118V335.971C330.172 337.752 330.905 339.448 332.178 340.694C333.45 341.941 335.161 342.639 336.942 342.639C338.723 342.639 340.434 341.941 341.706 340.694C342.979 339.448 343.712 337.752 343.749 335.971V288.118H330.135Z" fill="#FFECE5" stroke="black" stroke-width="5" stroke-linecap="round" stroke-linejoin="round"/>
<path d="M330.135 310.353L343.749 308.783L343.308 337.055C343.105 338.254 342.579 339.374 341.785 340.295C340.995 341.225 339.956 341.91 338.79 342.269C337.623 342.628 336.379 342.646 335.203 342.321C334.026 341.996 332.968 341.341 332.151 340.435C331.335 339.528 330.794 338.406 330.594 337.202L330.135 310.353Z" fill="#0EBDFF"/>
<path d="M330.135 288.118V335.971C330.172 337.752 330.905 339.448 332.178 340.694C333.45 341.941 335.161 342.639 336.942 342.639C338.723 342.639 340.434 341.941 341.706 340.694C342.979 339.448 343.712 337.752 343.749 335.971V288.118H330.135Z" stroke="black" stroke-width="5" stroke-linecap="round" stroke-linejoin="round"/>
<path d="M356.051 299.83H317.86C315.448 299.83 313.493 301.892 313.493 304.41V346.191H319.512V309.419C319.512 307.296 320.967 305.573 322.752 305.573H351.139C352.932 305.573 354.378 307.296 354.378 309.419V346.191H360.401V304.41C360.415 301.88 358.46 299.83 356.051 299.83Z" fill="#163342"/>
<path d="M304.905 310.353L318.52 308.783L318.078 337.055C317.875 338.254 317.349 339.374 316.555 340.295C315.765 341.225 314.726 341.91 313.56 342.269C312.393 342.628 311.149 342.646 309.973 342.321C308.796 341.996 307.738 341.341 306.921 340.435C306.105 339.528 305.564 338.406 305.364 337.202L304.905 310.353Z" fill="#F4E12C"/>
<path d="M304.905 288.118V335.971C304.942 337.752 305.675 339.448 306.948 340.694C308.221 341.941 309.931 342.639 311.712 342.639C313.493 342.639 315.204 341.941 316.476 340.694C317.749 339.448 318.483 337.752 318.52 335.971V288.118H304.905Z" stroke="black" stroke-width="5" stroke-linecap="round" stroke-linejoin="round"/>
<path d="M330.656 299.83H292.468C290.056 299.83 288.101 301.892 288.101 304.41V346.191H294.12V309.419C294.12 307.296 295.575 305.573 297.36 305.573H325.747C327.54 305.573 328.986 307.296 328.986 309.419V346.191H335.009V304.41C335.023 301.88 333.08 299.83 330.656 299.83Z" fill="#163342"/>
<path d="M393.296 519.792H404.169V356.301H393.296V519.792Z" fill="#163342"/>
<path d="M137.432 519.792H146.267L146.267 356.301H137.432L137.432 519.792Z" fill="#163342"/>
<path d="M69.0282 359.443L414.247 359.443C415.286 359.443 416.129 358.601 416.129 357.561V348.072C416.129 347.033 415.286 346.191 414.247 346.191L69.0282 346.191C67.9889 346.191 67.1464 347.033 67.1464 348.072V357.561C67.1464 358.601 67.9889 359.443 69.0282 359.443Z" fill="#0EBDFF"/>
<path d="M69.0278 359.443H163.692C164.731 359.443 165.574 358.601 165.574 357.561V348.072C165.574 347.033 164.731 346.191 163.692 346.191H69.0278C67.9885 346.191 67.146 347.033 67.146 348.072V357.561C67.146 358.601 67.9885 359.443 69.0278 359.443Z" fill="#163342"/>
<path d="M236.805 110.623L263.236 110.479C265.519 114.694 267.804 118.907 270.089 123.119C270.868 123.78 271.36 124.717 271.464 125.734C271.519 126.176 271.484 126.625 271.36 127.052C271.236 127.48 271.026 127.878 270.743 128.222C270.186 128.838 269.412 129.213 268.584 129.268L231.085 129.138C230.63 129.026 230.207 128.809 229.849 128.506C229.492 128.202 229.21 127.819 229.025 127.387C228.841 126.956 228.76 126.487 228.788 126.019C228.815 125.551 228.952 125.095 229.186 124.688C231.728 120 234.268 115.312 236.805 110.623Z" fill="#F4E12C"/>
<path d="M271.402 124.626L262.161 108.62L255.019 96.2514V85.994H255.903C256.091 85.994 256.277 85.9569 256.45 85.885C256.624 85.813 256.781 85.7075 256.914 85.5746C257.047 85.4416 257.152 85.2838 257.223 85.1102C257.295 84.9366 257.332 84.7505 257.331 84.5627V81.0199C257.331 80.6411 257.181 80.2778 256.913 80.0099C256.645 79.742 256.282 79.5916 255.903 79.5916H244.223C243.844 79.5916 243.48 79.7419 243.212 80.0097C242.944 80.2775 242.792 80.6408 242.792 81.0199V84.5745C242.792 84.9541 242.943 85.3181 243.211 85.5866C243.479 85.855 243.843 86.0058 244.223 86.0058H245.107V96.2485L237.965 108.617L228.723 124.624C228.434 125.126 228.281 125.695 228.281 126.275C228.281 126.855 228.433 127.425 228.723 127.927C229.013 128.429 229.43 128.846 229.932 129.137C230.434 129.427 231.003 129.58 231.583 129.58H268.543C269.123 129.58 269.692 129.428 270.194 129.138C270.696 128.848 271.113 128.431 271.403 127.929C271.693 127.427 271.846 126.857 271.846 126.278C271.845 125.698 271.693 125.128 271.402 124.626Z" stroke="black" stroke-width="5" stroke-linecap="round" stroke-linejoin="round"/>
<path d="M282.488 110.623L308.916 110.479L315.769 123.119C316.549 123.779 317.042 124.717 317.144 125.734C317.2 126.176 317.164 126.625 317.04 127.052C316.916 127.48 316.706 127.878 316.423 128.222C315.867 128.838 315.092 129.213 314.264 129.268L276.766 129.138C276.31 129.026 275.887 128.809 275.529 128.506C275.172 128.202 274.89 127.819 274.705 127.387C274.521 126.956 274.44 126.487 274.468 126.019C274.496 125.551 274.632 125.095 274.866 124.688L282.488 110.623Z" fill="#F06D57"/>
<path d="M317.083 124.626L307.844 108.62L300.7 96.2514V85.994H301.583C301.771 85.994 301.957 85.9569 302.13 85.885C302.304 85.813 302.461 85.7075 302.594 85.5746C302.727 85.4416 302.832 85.2838 302.903 85.1102C302.975 84.9366 303.012 84.7505 303.011 84.5627V81.0199C303.011 80.6411 302.861 80.2778 302.593 80.0099C302.325 79.742 301.962 79.5916 301.583 79.5916H289.903C289.524 79.5916 289.16 79.7419 288.892 80.0097C288.624 80.2775 288.473 80.6408 288.472 81.0199V84.5745C288.472 84.9541 288.623 85.3181 288.891 85.5866C289.16 85.855 289.524 86.0058 289.903 86.0058H290.787V96.2485L283.645 108.617L274.404 124.624C274.114 125.126 273.961 125.695 273.961 126.275C273.961 126.855 274.113 127.425 274.403 127.927C274.693 128.429 275.11 128.846 275.612 129.137C276.114 129.427 276.683 129.58 277.263 129.58H314.232C314.811 129.579 315.379 129.425 315.88 129.135C316.381 128.844 316.797 128.427 317.086 127.925C317.375 127.424 317.526 126.855 317.526 126.275C317.525 125.696 317.372 125.128 317.083 124.626Z" stroke="black" stroke-width="5" stroke-linecap="round" stroke-linejoin="round"/>
<path d="M374.124 63.0348H359.649V84.0238H374.124V63.0348Z" fill="#FFECE5" stroke="black" stroke-width="5" stroke-linecap="round" stroke-linejoin="round"/>
<path d="M372.248 27.094H361.525V63.2144H372.248V27.094Z" fill="#FFECE5" stroke="black" stroke-width="5" stroke-linecap="round" stroke-linejoin="round"/>
<path d="M398.83 113.971H373.67C380.481 112.919 386.644 109.335 390.927 103.936C395.21 98.5374 397.298 91.7211 396.774 84.8495C396.25 77.9779 393.152 71.5571 388.1 66.8703C383.047 62.1835 376.412 59.5759 369.521 59.5685V67.0782C374.743 67.1418 379.73 69.261 383.4 72.9762C387.07 76.6915 389.128 81.7036 389.128 86.9261C389.128 92.1485 387.07 97.1606 383.4 100.876C379.73 104.591 374.743 106.71 369.521 106.774V113.971H340.215C339.35 113.971 338.52 114.315 337.908 114.927C337.296 115.539 336.952 116.369 336.952 117.235V125.996C336.952 126.861 337.296 127.691 337.908 128.303C338.52 128.915 339.35 129.259 340.215 129.259H398.821C399.249 129.259 399.673 129.175 400.069 129.011C400.465 128.846 400.824 128.606 401.127 128.303C401.43 128 401.67 127.64 401.834 127.244C401.997 126.849 402.081 126.424 402.081 125.996V117.243C402.082 116.815 401.999 116.391 401.837 115.994C401.674 115.598 401.435 115.237 401.133 114.934C400.831 114.63 400.472 114.388 400.077 114.223C399.682 114.058 399.258 113.973 398.83 113.971Z" fill="#FFECE5" stroke="black" stroke-width="5" stroke-linecap="round" stroke-linejoin="round"/>
<path d="M366.886 71.1718C371.376 71.1718 375.017 67.5287 375.017 63.0347C375.017 58.5408 371.376 54.8977 366.886 54.8977C362.395 54.8977 358.754 58.5408 358.754 63.0347C358.754 67.5287 362.395 71.1718 366.886 71.1718Z" fill="#FFECE5" stroke="black" stroke-width="5" stroke-linecap="round" stroke-linejoin="round"/>
<path d="M366.886 120.403C371.376 120.403 375.017 116.76 375.017 112.266C375.017 107.772 371.376 104.129 366.886 104.129C362.395 104.129 358.754 107.772 358.754 112.266C358.754 116.76 362.395 120.403 366.886 120.403Z" fill="#FFECE5" stroke="black" stroke-width="5" stroke-linecap="round" stroke-linejoin="round"/>
<path d="M391.335 89.4985H351.642C351.154 89.4985 350.758 89.8941 350.758 90.382V91.5659C350.758 92.0539 351.154 92.4494 351.642 92.4494H391.335C391.822 92.4494 392.218 92.0539 392.218 91.5659V90.382C392.218 89.8941 391.822 89.4985 391.335 89.4985Z" fill="#FFECE5" stroke="black" stroke-width="5" stroke-linecap="round" stroke-linejoin="round"/>
<path d="M513.576 461.063C499.608 461.063 488.284 469.456 488.284 479.808H538.868C538.868 469.456 527.544 461.063 513.576 461.063Z" fill="#FFECE5" stroke="black" stroke-width="5" stroke-linecap="round" stroke-linejoin="round"/>
<path d="M516.247 267.742H510.905V461.063H516.247V267.742Z" fill="#FFECE5" stroke="black" stroke-width="4" stroke-linecap="round" stroke-linejoin="round"/>
<path d="M468.109 218.927L464.331 222.704L512.468 270.842L516.246 267.064L468.109 218.927Z" fill="#FFECE5" stroke="black" stroke-width="4" stroke-linecap="round" stroke-linejoin="round"/>
<path d="M451.263 255.773L457.465 232.626L458.525 228.665L482.845 204.348C483.325 203.866 483.595 203.214 483.595 202.534C483.595 201.853 483.325 201.201 482.845 200.719L467.722 185.597C467.484 185.358 467.201 185.169 466.89 185.04C466.579 184.911 466.245 184.844 465.908 184.844C465.571 184.844 465.237 184.911 464.926 185.04C464.615 185.169 464.332 185.358 464.094 185.597L439.774 209.914L435.813 210.977L412.665 217.179C412.012 217.35 411.415 217.691 410.936 218.168C410.456 218.644 410.112 219.239 409.937 219.891C409.762 220.544 409.763 221.231 409.939 221.884C410.116 222.536 410.462 223.13 410.943 223.605L427.888 240.551L444.834 257.496C445.311 257.973 445.905 258.316 446.556 258.49C447.208 258.665 447.894 258.665 448.545 258.49C449.197 258.315 449.791 257.972 450.268 257.496C450.745 257.019 451.088 256.425 451.263 255.773Z" fill="#FFECE5" stroke="black" stroke-width="5" stroke-linecap="round" stroke-linejoin="round"/>
<path d="M466.647 225.734C469.331 225.734 471.507 223.559 471.507 220.875C471.507 218.191 469.331 216.016 466.647 216.016C463.964 216.016 461.788 218.191 461.788 220.875C461.788 223.559 463.964 225.734 466.647 225.734Z" fill="#FFECE5" stroke="black" stroke-width="5" stroke-linecap="round" stroke-linejoin="round"/>
<path d="M513.576 273.617C516.259 273.617 518.435 271.441 518.435 268.758C518.435 266.074 516.259 263.899 513.576 263.899C510.892 263.899 508.716 266.074 508.716 268.758C508.716 271.441 510.892 273.617 513.576 273.617Z" fill="#FFECE5" stroke="black" stroke-width="5" stroke-linecap="round" stroke-linejoin="round"/>
<path d="M439.774 209.914L455.029 225.169L439.774 209.914Z" fill="#FFECE5"/>
<path d="M439.774 209.914L455.029 225.169" stroke="black" stroke-width="5" stroke-linecap="round" stroke-linejoin="round"/>
<path d="M237.008 140.488H225.193C223.82 140.488 222.707 141.601 222.707 142.974V193.107C222.707 194.479 223.82 195.592 225.193 195.592H237.008C238.381 195.592 239.494 194.479 239.494 193.107V142.974C239.494 141.601 238.381 140.488 237.008 140.488Z" stroke="black" stroke-width="5" stroke-linecap="round" stroke-linejoin="round"/>
<path d="M231.1 153.264C233.021 153.264 234.578 151.707 234.578 149.786C234.578 147.865 233.021 146.308 231.1 146.308C229.179 146.308 227.622 147.865 227.622 149.786C227.622 151.707 229.179 153.264 231.1 153.264Z" stroke="black" stroke-width="5" stroke-linecap="round" stroke-linejoin="round"/>
<path d="M253.795 140.488H241.979C240.606 140.488 239.494 141.601 239.494 142.974V193.107C239.494 194.479 240.606 195.592 241.979 195.592H253.795C255.167 195.592 256.28 194.479 256.28 193.107V142.974C256.28 141.601 255.167 140.488 253.795 140.488Z" stroke="black" stroke-width="5" stroke-linecap="round" stroke-linejoin="round"/>
<path d="M247.887 153.264C249.808 153.264 251.365 151.707 251.365 149.786C251.365 147.865 249.808 146.308 247.887 146.308C245.966 146.308 244.409 147.865 244.409 149.786C244.409 151.707 245.966 153.264 247.887 153.264Z" stroke="black" stroke-width="5" stroke-linecap="round" stroke-linejoin="round"/>
<path d="M272.563 139.509L260.866 141.518C259.506 141.751 258.594 143.042 258.827 144.401L267.35 194.032C267.583 195.391 268.874 196.304 270.233 196.07L281.93 194.062C283.289 193.829 284.202 192.538 283.969 191.179L275.446 141.547C275.213 140.188 273.922 139.276 272.563 139.509Z" stroke="black" stroke-width="5.02245" stroke-linecap="round" stroke-linejoin="round"/>
<path d="M266.935 152.887C268.856 152.887 270.413 151.33 270.413 149.409C270.413 147.488 268.856 145.931 266.935 145.931C265.014 145.931 263.457 147.488 263.457 149.409C263.457 151.33 265.014 152.887 266.935 152.887Z" stroke="black" stroke-width="5" stroke-linecap="round" stroke-linejoin="round"/>
<ellipse cx="56.0486" cy="194.478" rx="44.0486" ry="46.4778" fill="#BEB0F2"/>
<ellipse cx="550.205" cy="433.886" rx="14.2045" ry="13.8856" fill="#BEB0F2"/>
<ellipse cx="468.317" cy="59.7889" rx="18.3172" ry="18.7889" fill="#BEB0F2"/>
</g>
<defs>
<linearGradient id="paint0_linear_120_57" x1="326.517" y1="255.994" x2="277.994" y2="464.42" gradientUnits="userSpaceOnUse">
<stop stop-color="#E1DCFA" stop-opacity="0.05"/>
<stop offset="0.145833" stop-color="#E1DCFA" stop-opacity="0.781579"/>
<stop offset="0.369792" stop-color="#E1DCFA" stop-opacity="0.567708"/>
<stop offset="0.572917" stop-color="#E1DCFA" stop-opacity="0.65971"/>
<stop offset="0.822917" stop-color="#E1DCFA" stop-opacity="0.26"/>
<stop offset="0.9997" stop-color="#E1DCFA" stop-opacity="0.726974"/>
<stop offset="0.9998" stop-color="#E1DCFA" stop-opacity="0.836184"/>
<stop offset="0.9999" stop-color="#E1DCFA" stop-opacity="0.595011"/>
<stop offset="1" stop-color="#E1DCFA" stop-opacity="0"/>
</linearGradient>
<linearGradient id="paint1_linear_120_57" x1="373.33" y1="74.3405" x2="341.245" y2="564.87" gradientUnits="userSpaceOnUse">
<stop stop-color="#E1DCFA" stop-opacity="0.05"/>
<stop offset="0.145833" stop-color="#E1DCFA" stop-opacity="0.781579"/>
<stop offset="0.369792" stop-color="#E1DCFA" stop-opacity="0.567708"/>
<stop offset="0.572917" stop-color="#E1DCFA" stop-opacity="0.65971"/>
<stop offset="0.822917" stop-color="#E1DCFA" stop-opacity="0.26"/>
<stop offset="0.9997" stop-color="#E1DCFA" stop-opacity="0.726974"/>
<stop offset="0.9998" stop-color="#E1DCFA" stop-opacity="0.836184"/>
<stop offset="0.9999" stop-color="#E1DCFA" stop-opacity="0.595011"/>
<stop offset="1" stop-color="#E1DCFA" stop-opacity="0"/>
</linearGradient>
<clipPath id="clip0_120_57">
<rect width="589" height="589" fill="white"/>
</clipPath>
</defs>
</svg>
