<svg width="30" height="30" viewBox="0 0 30 30" fill="none" xmlns="http://www.w3.org/2000/svg">
<g id="heroicons-outline:logout">
<path id="Vector" d="M22.4444 20.5L28 15M28 15L22.4444 9.5M28 15H8.55556M16.8889 20.5V21.875C16.8889 22.969 16.4499 24.0182 15.6685 24.7918C14.8871 25.5654 13.8273 26 12.7222 26H7.16667C6.0616 26 5.00179 25.5654 4.22039 24.7918C3.43899 24.0182 3 22.969 3 21.875V8.125C3 7.03098 3.43899 5.98177 4.22039 5.20818C5.00179 4.4346 6.0616 4 7.16667 4H12.7222C13.8273 4 14.8871 4.4346 15.6685 5.20818C16.4499 5.98177 16.8889 7.03098 16.8889 8.125V9.5" stroke="black" stroke-width="1.5" stroke-linecap="round" stroke-linejoin="round"/>
</g>
</svg>
