<svg width="20" height="21" viewBox="0 0 20 21" fill="none" xmlns="http://www.w3.org/2000/svg">
<g id="Iconsax/Linear/messagetext1">
<path id="Vector" d="M7.08341 16.3334H6.66675C3.33341 16.3334 1.66675 15.5 1.66675 11.3334V7.16669C1.66675 3.83335 3.33341 2.16669 6.66675 2.16669H13.3334C16.6667 2.16669 18.3334 3.83335 18.3334 7.16669V11.3334C18.3334 14.6667 16.6667 16.3334 13.3334 16.3334H12.9167C12.6584 16.3334 12.4084 16.4584 12.2501 16.6667L11.0001 18.3334C10.4501 19.0667 9.55008 19.0667 9.00008 18.3334L7.75008 16.6667C7.61675 16.4834 7.30841 16.3334 7.08341 16.3334Z" stroke="#8640F9" stroke-width="2" stroke-miterlimit="10" stroke-linecap="round" stroke-linejoin="round"/>
<path id="Vector_2" d="M5.83325 7.16669H14.1666M5.83325 11.3334H10.8333" stroke="#8640F9" stroke-width="2" stroke-linecap="round" stroke-linejoin="round"/>
</g>
</svg>
