<svg width="30" height="30" viewBox="0 0 30 30" fill="none" xmlns="http://www.w3.org/2000/svg">
<path d="M15.0252 3.6375C10.8877 3.6375 7.52523 7 7.52523 11.1375V14.75C7.52523 15.5125 7.20023 16.675 6.81273 17.325L5.37523 19.7125C4.48773 21.1875 5.10023 22.825 6.72523 23.375C12.1127 25.175 17.9252 25.175 23.3127 23.375C24.8252 22.875 25.4877 21.0875 24.6627 19.7125L23.2252 17.325C22.8502 16.675 22.5252 15.5125 22.5252 14.75V11.1375C22.5252 7.0125 19.1502 3.6375 15.0252 3.6375Z" stroke="black" stroke-width="1.5" stroke-miterlimit="10" stroke-linecap="round"/>
<path d="M17.3379 4C15.8263 3.56949 14.2245 3.56949 12.7129 4C13.0754 3.075 13.9754 2.425 15.0254 2.425C16.0754 2.425 16.9754 3.075 17.3379 4Z" stroke="black" stroke-width="1.5" stroke-miterlimit="10" stroke-linecap="round" stroke-linejoin="round"/>
<path d="M18.7754 23.825C18.7754 25.8875 17.0879 27.575 15.0254 27.575C14.0004 27.575 13.0504 27.15 12.3754 26.475C11.6731 25.7716 11.2776 24.819 11.2754 23.825" stroke="black" stroke-width="1.5" stroke-miterlimit="10"/>
</svg>
