<svg width="25" height="24" viewBox="0 0 25 24" fill="none" xmlns="http://www.w3.org/2000/svg">
<g id="Iconsax/Linear/useredit">
<path id="Vector" d="M12.5 12C13.8261 12 15.0979 11.4732 16.0355 10.5355C16.9732 9.59785 17.5 8.32608 17.5 7C17.5 5.67392 16.9732 4.40215 16.0355 3.46447C15.0979 2.52678 13.8261 2 12.5 2C11.1739 2 9.90215 2.52678 8.96447 3.46447C8.02678 4.40215 7.5 5.67392 7.5 7C7.5 8.32608 8.02678 9.59785 8.96447 10.5355C9.90215 11.4732 11.1739 12 12.5 12Z" stroke="black" stroke-width="1.5" stroke-linecap="round" stroke-linejoin="round"/>
<path id="Vector_2" d="M19.71 15.74L16.17 19.28C16.03 19.42 15.9 19.68 15.87 19.87L15.68 21.22C15.61 21.71 15.95 22.05 16.44 21.98L17.79 21.79C17.98 21.76 18.25 21.63 18.38 21.49L21.92 17.95C22.53 17.34 22.82 16.63 21.92 15.73C21.03 14.84 20.32 15.13 19.71 15.74Z" stroke="black" stroke-width="1.5" stroke-miterlimit="10" stroke-linecap="round" stroke-linejoin="round"/>
<path id="Vector_3" d="M19.2002 16.25C19.5002 17.33 20.3402 18.17 21.4202 18.47" stroke="black" stroke-width="1.5" stroke-miterlimit="10" stroke-linecap="round" stroke-linejoin="round"/>
<path id="Vector_4" d="M3.91016 22C3.91016 18.13 7.76016 15 12.5002 15C13.5402 15 14.5402 15.15 15.4702 15.43" stroke="black" stroke-width="1.5" stroke-linecap="round" stroke-linejoin="round"/>
</g>
</svg>
